<svg width="743" height="610" viewBox="0 0 743 610" fill="none" xmlns="http://www.w3.org/2000/svg">
<path d="M115.73 357.133C130.371 357.133 143.605 359.395 155.712 363.921C167.538 368.447 177.675 374.669 186.122 382.589C194.569 390.509 201.045 400.126 205.268 411.157C209.773 422.188 212.026 434.351 212.026 447.927C212.026 461.504 209.773 473.667 205.268 484.698C200.763 495.729 194.287 505.346 186.122 513.266C177.675 521.185 167.538 527.408 155.712 531.934C143.886 536.459 130.371 538.722 115.73 538.722H84.4755V605.757H5.91797V357.133H115.73ZM108.127 467.727C114.885 467.727 120.235 466.03 124.177 462.353C127.837 458.676 129.808 453.867 129.808 447.927C129.808 441.987 127.837 437.179 124.177 433.502C120.516 429.825 115.166 428.128 108.127 428.128H84.4755V467.727H108.127Z" fill="black"/>
<path d="M491.06 481.586C491.06 499.406 487.681 516.094 480.923 531.651C474.166 547.207 465.155 560.784 453.329 572.381C441.785 583.978 427.988 593.029 411.939 599.817C396.171 606.606 378.995 610 360.975 610C342.955 610 326.061 606.606 310.011 599.817C294.243 593.029 280.447 583.978 268.621 572.381C257.076 560.784 247.785 547.207 241.027 531.651C234.269 516.094 230.891 499.406 230.891 481.586C230.891 464.05 234.269 447.362 241.027 431.805C247.785 416.248 256.795 402.671 268.621 391.075C280.165 379.478 293.962 370.427 310.011 363.638C325.779 356.85 342.955 353.456 360.975 353.456C378.995 353.456 395.89 356.85 411.939 363.638C427.707 370.427 441.504 379.478 453.329 391.075C464.874 402.671 474.166 416.248 480.923 431.805C487.681 447.362 491.06 464.05 491.06 481.586ZM412.502 481.586C412.502 474.232 411.094 467.444 408.279 460.938C405.463 454.433 401.802 448.776 397.016 443.967C392.229 439.159 386.879 435.199 380.685 432.653C374.49 429.825 368.014 428.411 361.257 428.411C354.499 428.411 348.023 429.825 341.828 432.653C335.634 435.482 330.284 439.159 325.498 443.967C320.711 448.776 317.05 454.433 314.235 460.938C311.419 467.444 310.011 474.232 310.011 481.586C310.011 488.94 311.419 495.729 314.235 502.234C317.05 508.74 320.711 514.397 325.498 519.205C330.284 524.014 335.634 527.974 341.828 530.519C348.023 533.348 354.499 534.762 361.257 534.762C368.014 534.762 374.49 533.348 380.685 530.519C386.879 527.691 392.229 524.014 397.016 519.205C401.802 514.397 405.463 508.74 408.279 502.234C411.094 495.729 412.502 488.94 412.502 481.586Z" fill="black"/>
<path d="M632.408 357.133C647.049 357.133 660.283 359.395 672.39 363.921C684.216 368.447 694.353 374.669 702.8 382.589C711.247 390.509 717.723 400.126 721.946 411.157C726.451 422.188 728.704 434.351 728.704 447.927C728.704 461.504 726.451 473.667 721.946 484.698C717.441 495.729 710.965 505.346 702.8 513.266C694.353 521.185 684.216 527.408 672.39 531.934C660.564 536.459 647.049 538.722 632.408 538.722H600.872V605.757H522.314V357.133H632.408ZM624.524 467.727C631.281 467.727 636.631 466.03 640.573 462.353C644.233 458.676 646.204 453.867 646.204 447.927C646.204 441.987 644.233 437.179 640.573 433.502C636.913 429.825 631.563 428.128 624.524 428.128H600.872V467.727H624.524Z" fill="black"/>
<path d="M741.374 113.599C733.491 66.9292 675.769 70.6062 641.699 98.0426C640.292 132.833 624.242 174.978 611.572 187.989C606.503 193.08 599.464 189.403 602.561 181.483C625.368 126.045 625.65 55.0495 519.78 107.942C505.702 170.735 477.264 208.637 436.155 233.527C417.29 244.841 398.143 250.216 386.599 250.216C379.278 250.216 378.715 242.296 384.628 239.75C408.279 229.568 433.339 216.839 450.515 195.626C469.098 172.715 478.953 135.944 453.33 111.619C419.824 79.0917 351.121 91.8199 309.167 146.693C292.273 168.755 282.418 188.272 272.282 204.394C260.738 224.476 253.417 234.659 247.785 239.75C241.028 245.69 235.115 241.73 238.212 232.679C240.465 225.608 244.125 215.708 246.941 208.354C279.04 124.065 254.262 118.691 240.465 115.296C223.289 111.054 191.472 114.731 155.15 157.724C148.955 164.795 141.071 156.875 146.703 148.107C183.87 90.4057 236.804 53.6352 258.485 53.0695C264.116 52.7867 265.806 49.3925 265.243 46.2812C262.145 23.3703 242.436 2.43949 209.774 0.176698C176.267 -2.36895 121.925 22.239 69.5528 96.9112C4.51059 189.403 -3.65488 264.358 1.13177 293.209C9.01568 339.879 66.7372 336.202 100.807 308.765C102.215 273.692 118.264 231.83 130.935 218.819C136.003 213.728 143.042 217.405 139.945 225.325C124.459 263.227 124.459 307.917 154.305 317.817C167.82 322.342 185.277 321.211 212.589 307.351C232.862 296.037 252.291 276.521 263.835 262.095C268.34 257.853 269.466 256.721 272.845 262.944C298.468 312.725 372.802 311.877 419.824 286.986C438.97 277.086 454.175 266.621 467.127 254.175C474.166 247.387 479.516 248.801 479.235 258.701C478.671 275.389 487.963 288.117 502.323 291.794C519.499 296.037 551.316 292.36 587.638 249.367C593.833 242.296 601.998 250.216 596.085 258.984C559.481 313.008 504.013 330.828 482.332 331.393C476.7 331.676 475.011 335.07 475.574 338.182C478.671 361.093 498.381 382.023 530.761 384.286C564.268 386.832 630.437 358.547 671.827 303.108C739.404 212.879 746.443 142.733 741.374 113.599ZM359.005 199.02C357.597 202.131 354.5 202.98 352.529 201L351.966 200.717C350.276 199.02 349.995 196.191 350.839 193.646C362.102 166.492 382.094 146.127 404.619 147.258C407.153 147.258 408.842 150.087 408.561 153.198C408.279 156.027 406.59 158.29 404.337 158.572C393.075 160.835 373.365 170.169 359.005 199.02Z" fill="#FF4E00"/>
</svg>
